<svg xmlns="http://www.w3.org/2000/svg" width="612" height="792" viewBox="0 0 612.000 792.000"><g data-role="page" data-page-index="0" transform="translate(0 0.000)"><text data-role="title" x="306.000" y="66.000" font-family="Academico" font-size="24.000pt" fill="#333" text-anchor="middle" font-weight="bold">Open Hi-Hat Accents</text><text data-role="tempo-glyph" data-measure-id="measure-0" x="39.000" y="130.000" font-family="Bravura" font-size="33.330pt" fill="#333"></text><text data-role="tempo-equals" data-measure-id="measure-0" x="55.300" y="130.000" font-family="Academico" font-size="18.670pt" fill="#333">=</text><text data-role="tempo" data-measure-id="measure-0" x="73.300" y="130.000" font-family="Academico" font-size="18.670pt" fill="#333">100</text><line data-role="staff-line" x1="30.000" y1="243.750" x2="582.000" y2="243.750" stroke="#333" stroke-width="1.000" /><line data-role="staff-line" x1="30.000" y1="253.750" x2="582.000" y2="253.750" stroke="#333" stroke-width="1.000" /><line data-role="staff-line" x1="30.000" y1="263.750" x2="582.000" y2="263.750" stroke="#333" stroke-width="1.000" /><line data-role="staff-line" x1="30.000" y1="273.750" x2="582.000" y2="273.750" stroke="#333" stroke-width="1.000" /><line data-role="staff-line" x1="30.000" y1="283.750" x2="582.000" y2="283.750" stroke="#333" stroke-width="1.000" /><text data-role="percussion-clef" x="35.000" y="263.750" font-family="Bravura" font-size="40.000pt" fill="#333"></text><text data-role="time-signature-digit" x="65.000" y="253.750" font-family="Bravura" font-size="40.000pt" fill="#333"></text><text data-role="time-signature-digit" x="65.000" y="273.750" font-family="Bravura" font-size="40.000pt" fill="#333"></text><text data-role="tempo-glyph" data-measure-id="measure-0" x="39.000" y="223.750" font-family="Bravura" font-size="33.330pt" fill="#333"></text><text data-role="tempo-equals" data-measure-id="measure-0" x="55.300" y="223.750" font-family="Academico" font-size="18.670pt" fill="#333">=</text><text data-role="tempo" data-measure-id="measure-0" x="73.300" y="223.750" font-family="Academico" font-size="18.670pt" fill="#333">100</text><rect data-role="opening-barline" data-measure-id="measure-0" x="30.000" y="243.750" width="1.000" height="41.000" fill="#333" /><text data-role="notehead" data-measure-id="measure-0" x="130.625" y="238.750" font-family="Bravura" font-size="40.000pt" fill="#333"></text><text data-role="notehead" data-measure-id="measure-0" x="130.625" y="278.750" font-family="Bravura" font-size="40.000pt" fill="#333"></text><line data-role="stem" data-measure-id="measure-0" x1="145.525" y1="202.750" x2="145.525" y2="233.750" stroke="#333" stroke-width="1.500" /><line data-role="stem" data-measure-id="measure-0" x1="131.625" y1="280.350" x2="131.625" y2="311.350" stroke="#333" stroke-width="1.500" /><text data-role="notehead" data-measure-id="measure-0" x="157.875" y="238.750" font-family="Bravura" font-size="40.000pt" fill="#333"></text><text data-role="rest" data-measure-id="measure-0" x="157.075" y="282.310" font-family="Bravura" font-size="40.000pt" fill="#333"></text><line data-role="stem" data-measure-id="measure-0" x1="172.775" y1="202.750" x2="172.775" y2="233.750" stroke="#333" stroke-width="1.500" /><text data-role="notehead" data-measure-id="measure-0" x="185.125" y="238.750" font-family="Bravura" font-size="40.000pt" fill="#333"></text><text data-role="rest" data-measure-id="measure-0" x="184.325" y="282.310" font-family="Bravura" font-size="40.000pt" fill="#333"></text><line data-role="stem" data-measure-id="measure-0" x1="200.025" y1="202.750" x2="200.025" y2="233.750" stroke="#333" stroke-width="1.500" /><text data-role="notehead" data-measure-id="measure-0" x="212.375" y="238.750" font-family="Bravura" font-size="40.000pt" fill="#333"></text><text data-role="rest" data-measure-id="measure-0" x="211.575" y="282.310" font-family="Bravura" font-size="40.000pt" fill="#333"></text><line data-role="stem" data-measure-id="measure-0" x1="227.275" y1="202.750" x2="227.275" y2="233.750" stroke="#333" stroke-width="1.500" /><text data-role="notehead" data-measure-id="measure-0" x="239.625" y="238.750" font-family="Bravura" font-size="40.000pt" fill="#333"></text><text data-role="notehead" data-measure-id="measure-0" x="239.625" y="258.750" font-family="Bravura" font-size="40.000pt" fill="#333"></text><text data-role="rest" data-measure-id="measure-0" x="238.825" y="282.310" font-family="Bravura" font-size="40.000pt" fill="#333"></text><line data-role="stem" data-measure-id="measure-0" x1="254.525" y1="202.750" x2="254.525" y2="257.150" stroke="#333" stroke-width="1.500" /><text data-role="notehead" data-measure-id="measure-0" x="266.875" y="238.750" font-family="Bravura" font-size="40.000pt" fill="#333"></text><text data-role="rest" data-measure-id="measure-0" x="266.075" y="282.310" font-family="Bravura" font-size="40.000pt" fill="#333"></text><line data-role="stem" data-measure-id="measure-0" x1="281.775" y1="203.431" x2="281.775" y2="233.750" stroke="#333" stroke-width="1.500" /><text data-role="notehead" data-measure-id="measure-0" x="294.125" y="238.750" font-family="Bravura" font-size="40.000pt" fill="#333"></text><text data-role="rest" data-measure-id="measure-0" x="293.325" y="282.310" font-family="Bravura" font-size="40.000pt" fill="#333"></text><line data-role="stem" data-measure-id="measure-0" x1="309.025" y1="204.113" x2="309.025" y2="233.750" stroke="#333" stroke-width="1.500" /><text data-role="notehead" data-measure-id="measure-0" x="321.375" y="238.750" font-family="Bravura" font-size="40.000pt" fill="#333"></text><text data-role="rest" data-measure-id="measure-0" x="319.482" y="282.310" font-family="Bravura" font-size="40.000pt" fill="#333"></text><line data-role="stem" data-measure-id="measure-0" x1="333.875" y1="204.734" x2="333.875" y2="238.750" stroke="#333" stroke-width="1.500" /><text data-role="notehead" data-measure-id="measure-0" x="348.625" y="238.750" font-family="Bravura" font-size="40.000pt" fill="#333"></text><text data-role="notehead" data-measure-id="measure-0" x="348.625" y="278.750" font-family="Bravura" font-size="40.000pt" fill="#333"></text><line data-role="stem" data-measure-id="measure-0" x1="363.525" y1="202.750" x2="363.525" y2="233.750" stroke="#333" stroke-width="1.500" /><line data-role="stem" data-measure-id="measure-0" x1="349.625" y1="280.350" x2="349.625" y2="311.350" stroke="#333" stroke-width="1.500" /><text data-role="notehead" data-measure-id="measure-0" x="375.875" y="238.750" font-family="Bravura" font-size="40.000pt" fill="#333"></text><text data-role="rest" data-measure-id="measure-0" x="375.075" y="282.310" font-family="Bravura" font-size="40.000pt" fill="#333"></text><line data-role="stem" data-measure-id="measure-0" x1="390.775" y1="202.750" x2="390.775" y2="233.750" stroke="#333" stroke-width="1.500" /><text data-role="notehead" data-measure-id="measure-0" x="403.125" y="238.750" font-family="Bravura" font-size="40.000pt" fill="#333"></text><text data-role="rest" data-measure-id="measure-0" x="402.325" y="282.310" font-family="Bravura" font-size="40.000pt" fill="#333"></text><line data-role="stem" data-measure-id="measure-0" x1="418.025" y1="202.750" x2="418.025" y2="233.750" stroke="#333" stroke-width="1.500" /><text data-role="notehead" data-measure-id="measure-0" x="430.375" y="238.750" font-family="Bravura" font-size="40.000pt" fill="#333"></text><text data-role="rest" data-measure-id="measure-0" x="429.575" y="282.310" font-family="Bravura" font-size="40.000pt" fill="#333"></text><line data-role="stem" data-measure-id="measure-0" x1="445.275" y1="202.750" x2="445.275" y2="233.750" stroke="#333" stroke-width="1.500" /><text data-role="notehead" data-measure-id="measure-0" x="457.625" y="238.750" font-family="Bravura" font-size="40.000pt" fill="#333"></text><text data-role="notehead" data-measure-id="measure-0" x="457.625" y="258.750" font-family="Bravura" font-size="40.000pt" fill="#333"></text><text data-role="rest" data-measure-id="measure-0" x="456.825" y="282.310" font-family="Bravura" font-size="40.000pt" fill="#333"></text><line data-role="stem" data-measure-id="measure-0" x1="472.525" y1="202.750" x2="472.525" y2="257.150" stroke="#333" stroke-width="1.500" /><text data-role="notehead" data-measure-id="measure-0" x="484.875" y="238.750" font-family="Bravura" font-size="40.000pt" fill="#333"></text><text data-role="rest" data-measure-id="measure-0" x="484.075" y="282.310" font-family="Bravura" font-size="40.000pt" fill="#333"></text><line data-role="stem" data-measure-id="measure-0" x1="499.775" y1="202.750" x2="499.775" y2="233.750" stroke="#333" stroke-width="1.500" /><text data-role="notehead" data-measure-id="measure-0" x="512.125" y="238.750" font-family="Bravura" font-size="40.000pt" fill="#333"></text><text data-role="rest" data-measure-id="measure-0" x="511.325" y="282.310" font-family="Bravura" font-size="40.000pt" fill="#333"></text><line data-role="stem" data-measure-id="measure-0" x1="527.025" y1="202.750" x2="527.025" y2="233.750" stroke="#333" stroke-width="1.500" /><text data-role="notehead" data-measure-id="measure-0" x="539.375" y="238.750" font-family="Bravura" font-size="40.000pt" fill="#333"></text><text data-role="rest" data-measure-id="measure-0" x="538.575" y="282.310" font-family="Bravura" font-size="40.000pt" fill="#333"></text><line data-role="stem" data-measure-id="measure-0" x1="554.275" y1="202.750" x2="554.275" y2="233.750" stroke="#333" stroke-width="1.500" /><path data-role="beam" data-measure-id="measure-0" d="M 145.525 202.750 L 227.275 202.750 L 227.275 206.750 L 145.525 206.750 Z" fill="#333" /><path data-role="beam-secondary" data-measure-id="measure-0" d="M 145.525 208.750 L 172.775 208.750 L 172.775 212.750 L 145.525 212.750 Z" fill="#333" /><path data-role="beam-secondary" data-measure-id="measure-0" d="M 172.775 208.750 L 200.025 208.750 L 200.025 212.750 L 172.775 212.750 Z" fill="#333" /><path data-role="beam-secondary" data-measure-id="measure-0" d="M 200.025 208.750 L 227.275 208.750 L 227.275 212.750 L 200.025 212.750 Z" fill="#333" /><path data-role="beam" data-measure-id="measure-0" d="M 254.525 202.750 L 333.875 204.734 L 333.875 208.734 L 254.525 206.750 Z" fill="#333" /><path data-role="beam-secondary" data-measure-id="measure-0" d="M 254.525 208.750 L 281.775 209.431 L 281.775 213.431 L 254.525 212.750 Z" fill="#333" /><path data-role="beam-secondary" data-measure-id="measure-0" d="M 281.775 209.431 L 309.025 210.113 L 309.025 214.113 L 281.775 213.431 Z" fill="#333" /><path data-role="beam-secondary" data-measure-id="measure-0" d="M 309.025 210.113 L 333.875 210.734 L 333.875 214.734 L 309.025 214.113 Z" fill="#333" /><path data-role="beam" data-measure-id="measure-0" d="M 363.525 202.750 L 445.275 202.750 L 445.275 206.750 L 363.525 206.750 Z" fill="#333" /><path data-role="beam-secondary" data-measure-id="measure-0" d="M 363.525 208.750 L 390.775 208.750 L 390.775 212.750 L 363.525 212.750 Z" fill="#333" /><path data-role="beam-secondary" data-measure-id="measure-0" d="M 390.775 208.750 L 418.025 208.750 L 418.025 212.750 L 390.775 212.750 Z" fill="#333" /><path data-role="beam-secondary" data-measure-id="measure-0" d="M 418.025 208.750 L 445.275 208.750 L 445.275 212.750 L 418.025 212.750 Z" fill="#333" /><path data-role="beam" data-measure-id="measure-0" d="M 472.525 202.750 L 554.275 202.750 L 554.275 206.750 L 472.525 206.750 Z" fill="#333" /><path data-role="beam-secondary" data-measure-id="measure-0" d="M 472.525 208.750 L 499.775 208.750 L 499.775 212.750 L 472.525 212.750 Z" fill="#333" /><path data-role="beam-secondary" data-measure-id="measure-0" d="M 499.775 208.750 L 527.025 208.750 L 527.025 212.750 L 499.775 212.750 Z" fill="#333" /><path data-role="beam-secondary" data-measure-id="measure-0" d="M 527.025 208.750 L 554.275 208.750 L 554.275 212.750 L 527.025 212.750 Z" fill="#333" /><text data-role="flag" data-measure-id="measure-0" x="131.625" y="312.289" font-family="Bravura" font-size="29.333pt" fill="#333"></text><text data-role="flag" data-measure-id="measure-0" x="349.625" y="312.289" font-family="Bravura" font-size="29.333pt" fill="#333"></text><rect data-role="final-barline-thin" data-measure-id="measure-0" x="578.000" y="243.750" width="1.000" height="41.000" fill="#333" /><rect data-role="final-barline-thick" data-measure-id="measure-0" x="579.000" y="243.750" width="3.000" height="41.000" fill="#333" /></g></svg>