<svg xmlns="http://www.w3.org/2000/svg" width="612" height="792" viewBox="0 0 612.000 792.000"><g data-role="page" data-page-index="0" transform="translate(0 0.000)"><text data-role="title" x="306.000" y="66.000" font-family="Academico" font-size="24.000pt" fill="#333" text-anchor="middle" font-weight="bold">Track Assignment</text><text data-role="tempo-glyph" data-measure-id="measure-0" x="39.000" y="130.000" font-family="Bravura" font-size="33.330pt" fill="#333"></text><text data-role="tempo-equals" data-measure-id="measure-0" x="55.300" y="130.000" font-family="Academico" font-size="18.670pt" fill="#333">=</text><text data-role="tempo" data-measure-id="measure-0" x="73.300" y="130.000" font-family="Academico" font-size="18.670pt" fill="#333">120</text><line data-role="staff-line" x1="30.000" y1="248.750" x2="582.000" y2="248.750" stroke="#333" stroke-width="1.000" /><line data-role="staff-line" x1="30.000" y1="258.750" x2="582.000" y2="258.750" stroke="#333" stroke-width="1.000" /><line data-role="staff-line" x1="30.000" y1="268.750" x2="582.000" y2="268.750" stroke="#333" stroke-width="1.000" /><line data-role="staff-line" x1="30.000" y1="278.750" x2="582.000" y2="278.750" stroke="#333" stroke-width="1.000" /><line data-role="staff-line" x1="30.000" y1="288.750" x2="582.000" y2="288.750" stroke="#333" stroke-width="1.000" /><text data-role="percussion-clef" x="35.000" y="268.750" font-family="Bravura" font-size="40.000pt" fill="#333"></text><text data-role="time-signature-digit" x="65.000" y="258.750" font-family="Bravura" font-size="40.000pt" fill="#333"></text><text data-role="time-signature-digit" x="65.000" y="278.750" font-family="Bravura" font-size="40.000pt" fill="#333"></text><text data-role="tempo-glyph" data-measure-id="measure-0" x="39.000" y="228.750" font-family="Bravura" font-size="33.330pt" fill="#333"></text><text data-role="tempo-equals" data-measure-id="measure-0" x="55.300" y="228.750" font-family="Academico" font-size="18.670pt" fill="#333">=</text><text data-role="tempo" data-measure-id="measure-0" x="73.300" y="228.750" font-family="Academico" font-size="18.670pt" fill="#333">120</text><rect data-role="opening-barline" data-measure-id="measure-0" x="30.000" y="248.750" width="1.000" height="41.000" fill="#333" /><text data-role="notehead" data-measure-id="measure-0" x="128.514" y="238.750" font-family="Bravura" font-size="40.000pt" fill="#333"></text><line data-role="ledger-line" data-measure-id="measure-0" x1="125.514" y1="238.750" x2="146.980" y2="238.750" stroke="#333" stroke-width="1.250" /><text data-role="notehead" data-measure-id="measure-0" x="128.514" y="283.750" font-family="Bravura" font-size="40.000pt" fill="#333"></text><line data-role="stem" data-measure-id="measure-0" x1="143.414" y1="202.750" x2="143.414" y2="233.750" stroke="#333" stroke-width="1.500" /><line data-role="stem" data-measure-id="measure-0" x1="129.514" y1="285.350" x2="129.514" y2="316.350" stroke="#333" stroke-width="1.500" /><text data-role="notehead" data-measure-id="measure-0" x="151.541" y="243.750" font-family="Bravura" font-size="40.000pt" fill="#333"></text><text data-role="rest" data-measure-id="measure-0" x="152.688" y="280.803" font-family="Bravura" font-size="40.000pt" fill="#333"></text><line data-role="stem" data-measure-id="measure-0" x1="166.441" y1="203.326" x2="166.441" y2="238.750" stroke="#333" stroke-width="1.500" /><text data-role="notehead" data-measure-id="measure-0" x="174.569" y="243.750" font-family="Bravura" font-size="40.000pt" fill="#333"></text><text data-role="notehead" data-measure-id="measure-0" x="174.569" y="263.750" font-family="Bravura" font-size="40.000pt" fill="#333"></text><text data-role="rest" data-measure-id="measure-0" x="175.716" y="280.803" font-family="Bravura" font-size="40.000pt" fill="#333"></text><line data-role="stem" data-measure-id="measure-0" x1="189.469" y1="203.901" x2="189.469" y2="262.150" stroke="#333" stroke-width="1.500" /><text data-role="notehead" data-measure-id="measure-0" x="197.596" y="243.750" font-family="Bravura" font-size="40.000pt" fill="#333"></text><text data-role="rest" data-measure-id="measure-0" x="198.743" y="280.803" font-family="Bravura" font-size="40.000pt" fill="#333"></text><line data-role="stem" data-measure-id="measure-0" x1="212.496" y1="204.477" x2="212.496" y2="238.750" stroke="#333" stroke-width="1.500" /><text data-role="notehead" data-measure-id="measure-0" x="216.437" y="263.750" font-family="Bravura" font-size="40.000pt" fill="#333"></text><text data-role="notehead" data-measure-id="measure-0" x="216.437" y="283.750" font-family="Bravura" font-size="40.000pt" fill="#333"></text><line data-role="stem" data-measure-id="measure-0" x1="231.337" y1="231.150" x2="231.337" y2="262.150" stroke="#333" stroke-width="1.500" /><line data-role="stem" data-measure-id="measure-0" x1="217.437" y1="285.350" x2="217.437" y2="316.350" stroke="#333" stroke-width="1.500" /><text data-role="notehead" data-measure-id="measure-0" x="231.091" y="263.750" font-family="Bravura" font-size="40.000pt" fill="#333"></text><line data-role="stem" data-measure-id="measure-0" x1="245.991" y1="231.883" x2="245.991" y2="262.150" stroke="#333" stroke-width="1.500" /><text data-role="notehead" data-measure-id="measure-0" x="245.745" y="253.750" font-family="Bravura" font-size="40.000pt" fill="#333"></text><text data-role="rest" data-measure-id="measure-0" x="247.025" y="280.803" font-family="Bravura" font-size="40.000pt" fill="#333"></text><line data-role="stem" data-measure-id="measure-0" x1="260.645" y1="232.615" x2="260.645" y2="252.150" stroke="#333" stroke-width="1.500" /><text data-role="notehead" data-measure-id="measure-0" x="260.399" y="253.750" font-family="Bravura" font-size="40.000pt" fill="#333"></text><line data-role="stem" data-measure-id="measure-0" x1="275.299" y1="233.348" x2="275.299" y2="252.150" stroke="#333" stroke-width="1.500" /><text data-role="notehead" data-measure-id="measure-0" x="275.053" y="258.750" font-family="Bravura" font-size="40.000pt" fill="#333"></text><text data-role="rest" data-measure-id="measure-0" x="276.333" y="280.803" font-family="Bravura" font-size="40.000pt" fill="#333"></text><line data-role="stem" data-measure-id="measure-0" x1="289.953" y1="234.081" x2="289.953" y2="257.150" stroke="#333" stroke-width="1.500" /><text data-role="notehead" data-measure-id="measure-0" x="289.707" y="258.750" font-family="Bravura" font-size="40.000pt" fill="#333"></text><line data-role="stem" data-measure-id="measure-0" x1="304.607" y1="234.813" x2="304.607" y2="257.150" stroke="#333" stroke-width="1.500" /><text data-role="notehead" data-measure-id="measure-0" x="304.361" y="273.750" font-family="Bravura" font-size="40.000pt" fill="#333"></text><text data-role="rest" data-measure-id="measure-0" x="305.641" y="285.803" font-family="Bravura" font-size="40.000pt" fill="#333"></text><line data-role="stem" data-measure-id="measure-0" x1="319.261" y1="235.546" x2="319.261" y2="272.150" stroke="#333" stroke-width="1.500" /><text data-role="notehead" data-measure-id="measure-0" x="319.015" y="273.750" font-family="Bravura" font-size="40.000pt" fill="#333"></text><line data-role="stem" data-measure-id="measure-0" x1="333.915" y1="236.279" x2="333.915" y2="272.150" stroke="#333" stroke-width="1.500" /><path data-role="beam" data-measure-id="measure-0" d="M 143.414 202.750 L 212.496 204.477 L 212.496 208.477 L 143.414 206.750 Z" fill="#333" /><path data-role="beam" data-measure-id="measure-0" d="M 231.337 231.150 L 333.915 236.279 L 333.915 240.279 L 231.337 235.150 Z" fill="#333" /><path data-role="beam-secondary" data-measure-id="measure-0" d="M 231.337 237.150 L 245.991 237.883 L 245.991 241.883 L 231.337 241.150 Z" fill="#333" /><path data-role="beam-secondary" data-measure-id="measure-0" d="M 245.991 237.883 L 260.645 238.615 L 260.645 242.615 L 245.991 241.883 Z" fill="#333" /><path data-role="beam-secondary" data-measure-id="measure-0" d="M 260.645 238.615 L 275.299 239.348 L 275.299 243.348 L 260.645 242.615 Z" fill="#333" /><path data-role="beam-secondary" data-measure-id="measure-0" d="M 275.299 239.348 L 289.953 240.081 L 289.953 244.081 L 275.299 243.348 Z" fill="#333" /><path data-role="beam-secondary" data-measure-id="measure-0" d="M 289.953 240.081 L 304.607 240.813 L 304.607 244.813 L 289.953 244.081 Z" fill="#333" /><path data-role="beam-secondary" data-measure-id="measure-0" d="M 304.607 240.813 L 319.261 241.546 L 319.261 245.546 L 304.607 244.813 Z" fill="#333" /><path data-role="beam-secondary" data-measure-id="measure-0" d="M 319.261 241.546 L 333.915 242.279 L 333.915 246.279 L 319.261 245.546 Z" fill="#333" /><text data-role="flag" data-measure-id="measure-0" x="129.514" y="317.318" font-family="Bravura" font-size="29.333pt" fill="#333"></text><text data-role="flag" data-measure-id="measure-0" x="217.437" y="317.318" font-family="Bravura" font-size="29.333pt" fill="#333"></text><rect data-role="barline" data-measure-id="measure-0" x="346.341" y="248.750" width="1.000" height="41.000" fill="#333" /><text data-role="notehead" data-measure-id="measure-1" x="366.303" y="238.750" font-family="Bravura" font-size="40.000pt" fill="#333"></text><line data-role="ledger-line" data-measure-id="measure-1" x1="363.303" y1="238.750" x2="384.770" y2="238.750" stroke="#333" stroke-width="1.250" /><text data-role="notehead" data-measure-id="measure-1" x="366.303" y="293.750" font-family="Bravura" font-size="40.000pt" fill="#333"></text><line data-role="stem" data-measure-id="measure-1" x1="381.203" y1="202.750" x2="381.203" y2="233.750" stroke="#333" stroke-width="1.500" /><line data-role="stem" data-measure-id="measure-1" x1="366.303" y1="298.750" x2="366.303" y2="329.750" stroke="#333" stroke-width="1.500" /><text data-role="notehead" data-measure-id="measure-1" x="390.227" y="248.750" font-family="Bravura" font-size="40.000pt" fill="#333"></text><text data-role="rest" data-measure-id="measure-1" x="391.374" y="280.803" font-family="Bravura" font-size="40.000pt" fill="#333"></text><line data-role="stem" data-measure-id="measure-1" x1="405.127" y1="204.544" x2="405.127" y2="243.750" stroke="#333" stroke-width="1.500" /><text data-role="notehead" data-measure-id="measure-1" x="414.151" y="248.750" font-family="Bravura" font-size="40.000pt" fill="#333"></text><text data-role="notehead" data-measure-id="measure-1" x="414.151" y="263.750" font-family="Bravura" font-size="40.000pt" fill="#333"></text><text data-role="notehead" data-measure-id="measure-1" x="414.151" y="293.750" font-family="Bravura" font-size="40.000pt" fill="#333"></text><line data-role="stem" data-measure-id="measure-1" x1="429.051" y1="206.339" x2="429.051" y2="262.150" stroke="#333" stroke-width="1.500" /><line data-role="stem" data-measure-id="measure-1" x1="414.151" y1="298.750" x2="414.151" y2="329.750" stroke="#333" stroke-width="1.500" /><text data-role="notehead" data-measure-id="measure-1" x="438.075" y="248.750" font-family="Bravura" font-size="40.000pt" fill="#333"></text><text data-role="rest" data-measure-id="measure-1" x="439.222" y="280.803" font-family="Bravura" font-size="40.000pt" fill="#333"></text><line data-role="stem" data-measure-id="measure-1" x1="452.975" y1="208.133" x2="452.975" y2="243.750" stroke="#333" stroke-width="1.500" /><text data-role="notehead" data-measure-id="measure-1" x="460.544" y="248.750" font-family="Bravura" font-size="40.000pt" fill="#333"></text><text data-role="notehead" data-measure-id="measure-1" x="460.544" y="293.750" font-family="Bravura" font-size="40.000pt" fill="#333"></text><line data-role="stem" data-measure-id="measure-1" x1="475.444" y1="212.750" x2="475.444" y2="243.750" stroke="#333" stroke-width="1.500" /><line data-role="stem" data-measure-id="measure-1" x1="460.544" y1="298.750" x2="460.544" y2="329.750" stroke="#333" stroke-width="1.500" /><text data-role="notehead" data-measure-id="measure-1" x="481.558" y="248.750" font-family="Bravura" font-size="40.000pt" fill="#333"></text><text data-role="rest" data-measure-id="measure-1" x="482.705" y="280.803" font-family="Bravura" font-size="40.000pt" fill="#333"></text><line data-role="stem" data-measure-id="measure-1" x1="496.458" y1="214.851" x2="496.458" y2="243.750" stroke="#333" stroke-width="1.500" /><text data-role="notehead" data-measure-id="measure-1" x="500.682" y="263.750" font-family="Bravura" font-size="40.000pt" fill="#333"></text><text data-role="notehead" data-measure-id="measure-1" x="500.682" y="293.750" font-family="Bravura" font-size="40.000pt" fill="#333"></text><line data-role="stem" data-measure-id="measure-1" x1="515.582" y1="216.764" x2="515.582" y2="262.150" stroke="#333" stroke-width="1.500" /><line data-role="stem" data-measure-id="measure-1" x1="500.682" y1="298.750" x2="500.682" y2="329.750" stroke="#333" stroke-width="1.500" /><text data-role="notehead" data-measure-id="measure-1" x="517.916" y="263.750" font-family="Bravura" font-size="40.000pt" fill="#333"></text><line data-role="stem" data-measure-id="measure-1" x1="532.816" y1="218.487" x2="532.816" y2="262.150" stroke="#333" stroke-width="1.500" /><text data-role="notehead" data-measure-id="measure-1" x="535.149" y="263.750" font-family="Bravura" font-size="40.000pt" fill="#333"></text><text data-role="rest" data-measure-id="measure-1" x="536.429" y="280.803" font-family="Bravura" font-size="40.000pt" fill="#333"></text><line data-role="stem" data-measure-id="measure-1" x1="550.049" y1="220.211" x2="550.049" y2="262.150" stroke="#333" stroke-width="1.500" /><text data-role="notehead" data-measure-id="measure-1" x="552.383" y="263.750" font-family="Bravura" font-size="40.000pt" fill="#333"></text><line data-role="stem" data-measure-id="measure-1" x1="567.283" y1="221.934" x2="567.283" y2="262.150" stroke="#333" stroke-width="1.500" /><path data-role="beam" data-measure-id="measure-1" d="M 381.203 202.750 L 452.975 208.133 L 452.975 212.133 L 381.203 206.750 Z" fill="#333" /><path data-role="beam" data-measure-id="measure-1" d="M 475.444 212.750 L 567.283 221.934 L 567.283 225.934 L 475.444 216.750 Z" fill="#333" /><path data-role="beam-secondary" data-measure-id="measure-1" d="M 515.582 222.764 L 532.816 224.487 L 532.816 228.487 L 515.582 226.764 Z" fill="#333" /><path data-role="beam-secondary" data-measure-id="measure-1" d="M 532.816 224.487 L 550.049 226.211 L 550.049 230.211 L 532.816 228.487 Z" fill="#333" /><path data-role="beam-secondary" data-measure-id="measure-1" d="M 550.049 226.211 L 567.283 227.934 L 567.283 231.934 L 550.049 230.211 Z" fill="#333" /><text data-role="flag" data-measure-id="measure-1" x="366.303" y="330.718" font-family="Bravura" font-size="29.333pt" fill="#333"></text><text data-role="flag" data-measure-id="measure-1" x="414.151" y="330.718" font-family="Bravura" font-size="29.333pt" fill="#333"></text><text data-role="flag" data-measure-id="measure-1" x="460.544" y="330.718" font-family="Bravura" font-size="29.333pt" fill="#333"></text><text data-role="flag" data-measure-id="measure-1" x="500.682" y="330.718" font-family="Bravura" font-size="29.333pt" fill="#333"></text><rect data-role="barline" data-measure-id="measure-1" x="581.000" y="248.750" width="1.000" height="41.000" fill="#333" /><line data-role="staff-line" x1="30.000" y1="407.879" x2="582.000" y2="407.879" stroke="#333" stroke-width="1.000" /><line data-role="staff-line" x1="30.000" y1="417.879" x2="582.000" y2="417.879" stroke="#333" stroke-width="1.000" /><line data-role="staff-line" x1="30.000" y1="427.879" x2="582.000" y2="427.879" stroke="#333" stroke-width="1.000" /><line data-role="staff-line" x1="30.000" y1="437.879" x2="582.000" y2="437.879" stroke="#333" stroke-width="1.000" /><line data-role="staff-line" x1="30.000" y1="447.879" x2="582.000" y2="447.879" stroke="#333" stroke-width="1.000" /><text data-role="percussion-clef" x="35.000" y="427.879" font-family="Bravura" font-size="40.000pt" fill="#333"></text><text data-role="measure-number" x="30.000" y="397.879" font-family="Academico" font-size="13.330pt" fill="#333">3</text><rect data-role="opening-barline" data-measure-id="measure-2" x="30.000" y="407.879" width="1.000" height="41.000" fill="#333" /><text data-role="notehead" data-measure-id="measure-2" x="89.312" y="397.879" font-family="Bravura" font-size="40.000pt" fill="#333"></text><line data-role="ledger-line" data-measure-id="measure-2" x1="86.312" y1="397.879" x2="107.779" y2="397.879" stroke="#333" stroke-width="1.250" /><text data-role="rest" data-measure-id="measure-2" x="89.526" y="438.239" font-family="Bravura" font-size="40.000pt" fill="#333"></text><line data-role="stem" data-measure-id="measure-2" x1="104.213" y1="361.879" x2="104.213" y2="392.879" stroke="#333" stroke-width="1.500" /><text data-role="notehead" data-measure-id="measure-2" x="117.938" y="407.879" font-family="Bravura" font-size="40.000pt" fill="#333"></text><line data-role="stem" data-measure-id="measure-2" x1="132.837" y1="363.310" x2="132.837" y2="402.879" stroke="#333" stroke-width="1.500" /><text data-role="notehead" data-measure-id="measure-2" x="146.562" y="407.879" font-family="Bravura" font-size="40.000pt" fill="#333"></text><line data-role="stem" data-measure-id="measure-2" x1="161.462" y1="364.741" x2="161.462" y2="402.879" stroke="#333" stroke-width="1.500" /><text data-role="notehead" data-measure-id="measure-2" x="175.188" y="407.879" font-family="Bravura" font-size="40.000pt" fill="#333"></text><line data-role="stem" data-measure-id="measure-2" x1="190.087" y1="366.172" x2="190.087" y2="402.879" stroke="#333" stroke-width="1.500" /><text data-role="notehead" data-measure-id="measure-2" x="203.812" y="397.879" font-family="Bravura" font-size="40.000pt" fill="#333"></text><line data-role="ledger-line" data-measure-id="measure-2" x1="200.812" y1="397.879" x2="222.279" y2="397.879" stroke="#333" stroke-width="1.250" /><line data-role="stem" data-measure-id="measure-2" x1="218.712" y1="361.879" x2="218.712" y2="392.879" stroke="#333" stroke-width="1.500" /><text data-role="notehead" data-measure-id="measure-2" x="232.438" y="402.879" font-family="Bravura" font-size="40.000pt" fill="#333"></text><line data-role="stem" data-measure-id="measure-2" x1="247.337" y1="363.310" x2="247.337" y2="397.879" stroke="#333" stroke-width="1.500" /><text data-role="notehead" data-measure-id="measure-2" x="261.062" y="402.879" font-family="Bravura" font-size="40.000pt" fill="#333"></text><line data-role="stem" data-measure-id="measure-2" x1="275.962" y1="364.741" x2="275.962" y2="397.879" stroke="#333" stroke-width="1.500" /><text data-role="notehead" data-measure-id="measure-2" x="289.688" y="402.879" font-family="Bravura" font-size="40.000pt" fill="#333"></text><line data-role="stem" data-measure-id="measure-2" x1="302.188" y1="366.052" x2="302.188" y2="402.879" stroke="#333" stroke-width="1.500" /><path data-role="beam" data-measure-id="measure-2" d="M 104.213 361.879 L 190.087 366.173 L 190.087 370.173 L 104.213 365.879 Z" fill="#333" /><path data-role="beam" data-measure-id="measure-2" d="M 218.712 361.879 L 302.188 366.053 L 302.188 370.053 L 218.712 365.879 Z" fill="#333" /><rect data-role="barline" data-measure-id="measure-2" x="324.000" y="407.879" width="1.000" height="41.000" fill="#333" /><text data-role="notehead" data-measure-id="measure-3" x="346.312" y="422.879" font-family="Bravura" font-size="40.000pt" fill="#333"></text><text data-role="notehead" data-measure-id="measure-3" x="346.312" y="442.879" font-family="Bravura" font-size="40.000pt" fill="#333"></text><line data-role="stem" data-measure-id="measure-3" x1="361.212" y1="390.279" x2="361.212" y2="421.279" stroke="#333" stroke-width="1.500" /><line data-role="stem" data-measure-id="measure-3" x1="347.312" y1="444.479" x2="347.312" y2="475.479" stroke="#333" stroke-width="1.500" /><text data-role="notehead" data-measure-id="measure-3" x="374.938" y="422.879" font-family="Bravura" font-size="40.000pt" fill="#333"></text><text data-role="notehead" data-measure-id="measure-3" x="374.938" y="442.879" font-family="Bravura" font-size="40.000pt" fill="#333"></text><line data-role="stem" data-measure-id="measure-3" x1="389.837" y1="388.847" x2="389.837" y2="421.279" stroke="#333" stroke-width="1.500" /><line data-role="stem" data-measure-id="measure-3" x1="375.938" y1="444.479" x2="375.938" y2="475.479" stroke="#333" stroke-width="1.500" /><text data-role="notehead" data-measure-id="measure-3" x="403.562" y="412.879" font-family="Bravura" font-size="40.000pt" fill="#333"></text><text data-role="rest" data-measure-id="measure-3" x="404.203" y="437.932" font-family="Bravura" font-size="40.000pt" fill="#333"></text><line data-role="stem" data-measure-id="measure-3" x1="418.462" y1="387.416" x2="418.462" y2="411.279" stroke="#333" stroke-width="1.500" /><text data-role="notehead" data-measure-id="measure-3" x="432.188" y="412.879" font-family="Bravura" font-size="40.000pt" fill="#333"></text><line data-role="stem" data-measure-id="measure-3" x1="447.087" y1="385.985" x2="447.087" y2="411.279" stroke="#333" stroke-width="1.500" /><text data-role="notehead" data-measure-id="measure-3" x="460.812" y="417.879" font-family="Bravura" font-size="40.000pt" fill="#333"></text><text data-role="rest" data-measure-id="measure-3" x="461.159" y="437.799" font-family="Bravura" font-size="40.000pt" fill="#333"></text><line data-role="stem" data-measure-id="measure-3" x1="475.712" y1="385.279" x2="475.712" y2="416.279" stroke="#333" stroke-width="1.500" /><text data-role="notehead" data-measure-id="measure-3" x="489.438" y="417.879" font-family="Bravura" font-size="40.000pt" fill="#333"></text><line data-role="stem" data-measure-id="measure-3" x1="504.337" y1="387.426" x2="504.337" y2="416.279" stroke="#333" stroke-width="1.500" /><text data-role="notehead" data-measure-id="measure-3" x="518.062" y="432.879" font-family="Bravura" font-size="40.000pt" fill="#333"></text><line data-role="stem" data-measure-id="measure-3" x1="532.963" y1="389.572" x2="532.963" y2="431.279" stroke="#333" stroke-width="1.500" /><text data-role="notehead" data-measure-id="measure-3" x="546.688" y="432.879" font-family="Bravura" font-size="40.000pt" fill="#333"></text><line data-role="stem" data-measure-id="measure-3" x1="561.588" y1="391.719" x2="561.588" y2="431.279" stroke="#333" stroke-width="1.500" /><path data-role="beam" data-measure-id="measure-3" d="M 361.212 390.279 L 447.087 385.985 L 447.087 389.985 L 361.212 394.279 Z" fill="#333" /><path data-role="beam" data-measure-id="measure-3" d="M 475.712 385.279 L 561.588 391.720 L 561.588 395.720 L 475.712 389.279 Z" fill="#333" /><path data-role="beam" data-measure-id="measure-3" d="M 347.312 475.479 L 375.938 475.479 L 375.938 471.479 L 347.312 471.479 Z" fill="#333" /><rect data-role="barline" data-measure-id="measure-3" x="581.000" y="407.879" width="1.000" height="41.000" fill="#333" /><line data-role="staff-line" x1="30.000" y1="546.499" x2="582.000" y2="546.499" stroke="#333" stroke-width="1.000" /><line data-role="staff-line" x1="30.000" y1="556.499" x2="582.000" y2="556.499" stroke="#333" stroke-width="1.000" /><line data-role="staff-line" x1="30.000" y1="566.499" x2="582.000" y2="566.499" stroke="#333" stroke-width="1.000" /><line data-role="staff-line" x1="30.000" y1="576.499" x2="582.000" y2="576.499" stroke="#333" stroke-width="1.000" /><line data-role="staff-line" x1="30.000" y1="586.499" x2="582.000" y2="586.499" stroke="#333" stroke-width="1.000" /><text data-role="percussion-clef" x="35.000" y="566.499" font-family="Bravura" font-size="40.000pt" fill="#333"></text><text data-role="measure-number" x="30.000" y="536.499" font-family="Academico" font-size="13.330pt" fill="#333">5</text><rect data-role="opening-barline" data-measure-id="measure-4" x="30.000" y="546.499" width="1.000" height="41.000" fill="#333" /><text data-role="notehead" data-measure-id="measure-4" x="97.303" y="561.499" font-family="Bravura" font-size="40.000pt" fill="#333"></text><text data-role="rest" data-measure-id="measure-4" x="97.650" y="576.859" font-family="Bravura" font-size="40.000pt" fill="#333"></text><text data-role="sticking" data-measure-id="measure-4" x="104.303" y="515.559" font-family="Academico" font-size="16.000pt" fill="#333" text-anchor="middle" font-weight="bold">R</text><line data-role="stem" data-measure-id="measure-4" x1="112.203" y1="528.899" x2="112.203" y2="559.899" stroke="#333" stroke-width="1.500" /><text data-role="notehead" data-measure-id="measure-4" x="141.909" y="561.499" font-family="Bravura" font-size="40.000pt" fill="#333"></text><text data-role="sticking" data-measure-id="measure-4" x="148.909" y="515.559" font-family="Academico" font-size="16.000pt" fill="#333" text-anchor="middle" font-weight="bold">L</text><line data-role="stem" data-measure-id="measure-4" x1="156.809" y1="528.899" x2="156.809" y2="559.899" stroke="#333" stroke-width="1.500" /><text data-role="notehead" data-measure-id="measure-4" x="191.407" y="561.499" font-family="Bravura" font-size="40.000pt" fill="#333"></text><text data-role="sticking" data-measure-id="measure-4" x="198.407" y="515.559" font-family="Academico" font-size="16.000pt" fill="#333" text-anchor="middle" font-weight="bold">R</text><line data-role="stem" data-measure-id="measure-4" x1="206.307" y1="528.899" x2="206.307" y2="559.899" stroke="#333" stroke-width="1.500" /><text data-role="notehead" data-measure-id="measure-4" x="251.961" y="561.499" font-family="Bravura" font-size="40.000pt" fill="#333"></text><text data-role="sticking" data-measure-id="measure-4" x="258.961" y="515.559" font-family="Academico" font-size="16.000pt" fill="#333" text-anchor="middle" font-weight="bold">R</text><line data-role="stem" data-measure-id="measure-4" x1="266.861" y1="528.899" x2="266.861" y2="559.899" stroke="#333" stroke-width="1.500" /><text data-role="notehead" data-measure-id="measure-4" x="302.050" y="561.499" font-family="Bravura" font-size="40.000pt" fill="#333"></text><text data-role="sticking" data-measure-id="measure-4" x="309.050" y="515.559" font-family="Academico" font-size="16.000pt" fill="#333" text-anchor="middle" font-weight="bold">R</text><line data-role="stem" data-measure-id="measure-4" x1="316.950" y1="528.899" x2="316.950" y2="559.899" stroke="#333" stroke-width="1.500" /><text data-role="notehead" data-measure-id="measure-4" x="335.510" y="561.499" font-family="Bravura" font-size="40.000pt" fill="#333"></text><text data-role="sticking" data-measure-id="measure-4" x="342.510" y="515.559" font-family="Academico" font-size="16.000pt" fill="#333" text-anchor="middle" font-weight="bold">L</text><line data-role="stem" data-measure-id="measure-4" x1="350.410" y1="528.899" x2="350.410" y2="559.899" stroke="#333" stroke-width="1.500" /><text data-role="notehead" data-measure-id="measure-4" x="368.970" y="561.499" font-family="Bravura" font-size="40.000pt" fill="#333"></text><text data-role="sticking" data-measure-id="measure-4" x="375.970" y="515.559" font-family="Academico" font-size="16.000pt" fill="#333" text-anchor="middle" font-weight="bold">R</text><line data-role="stem" data-measure-id="measure-4" x1="383.870" y1="528.899" x2="383.870" y2="559.899" stroke="#333" stroke-width="1.500" /><text data-role="notehead" data-measure-id="measure-4" x="402.430" y="561.499" font-family="Bravura" font-size="40.000pt" fill="#333"></text><text data-role="sticking" data-measure-id="measure-4" x="409.430" y="515.559" font-family="Academico" font-size="16.000pt" fill="#333" text-anchor="middle" font-weight="bold">L</text><line data-role="stem" data-measure-id="measure-4" x1="417.330" y1="528.899" x2="417.330" y2="559.899" stroke="#333" stroke-width="1.500" /><text data-role="rest" data-measure-id="measure-4" x="435.223" y="570.059" font-family="Bravura" font-size="40.000pt" fill="#333"></text><text data-role="notehead" data-measure-id="measure-4" x="469.350" y="561.499" font-family="Bravura" font-size="40.000pt" fill="#333"></text><text data-role="sticking" data-measure-id="measure-4" x="476.350" y="515.559" font-family="Academico" font-size="16.000pt" fill="#333" text-anchor="middle" font-weight="bold">L</text><line data-role="stem" data-measure-id="measure-4" x1="484.250" y1="528.899" x2="484.250" y2="559.899" stroke="#333" stroke-width="1.500" /><text data-role="notehead" data-measure-id="measure-4" x="502.810" y="561.499" font-family="Bravura" font-size="40.000pt" fill="#333"></text><text data-role="sticking" data-measure-id="measure-4" x="509.810" y="515.559" font-family="Academico" font-size="16.000pt" fill="#333" text-anchor="middle" font-weight="bold">R</text><line data-role="stem" data-measure-id="measure-4" x1="517.710" y1="528.899" x2="517.710" y2="559.899" stroke="#333" stroke-width="1.500" /><text data-role="notehead" data-measure-id="measure-4" x="536.270" y="561.499" font-family="Bravura" font-size="40.000pt" fill="#333"></text><text data-role="sticking" data-measure-id="measure-4" x="543.270" y="515.559" font-family="Academico" font-size="16.000pt" fill="#333" text-anchor="middle" font-weight="bold">L</text><line data-role="stem" data-measure-id="measure-4" x1="551.170" y1="528.899" x2="551.170" y2="559.899" stroke="#333" stroke-width="1.500" /><path data-role="beam" data-measure-id="measure-4" d="M 112.203 528.899 L 266.861 528.899 L 266.861 532.899 L 112.203 532.899 Z" fill="#333" /><path data-role="beam-secondary" data-measure-id="measure-4" d="M 112.203 534.899 L 156.809 534.899 L 156.809 538.899 L 112.203 538.899 Z" fill="#333" /><path data-role="beam" data-measure-id="measure-4" d="M 316.950 528.899 L 417.330 528.899 L 417.330 532.899 L 316.950 532.899 Z" fill="#333" /><path data-role="beam-secondary" data-measure-id="measure-4" d="M 316.950 534.899 L 350.410 534.899 L 350.410 538.899 L 316.950 538.899 Z" fill="#333" /><path data-role="beam-secondary" data-measure-id="measure-4" d="M 350.410 534.899 L 383.870 534.899 L 383.870 538.899 L 350.410 538.899 Z" fill="#333" /><path data-role="beam-secondary" data-measure-id="measure-4" d="M 383.870 534.899 L 417.330 534.899 L 417.330 538.899 L 383.870 538.899 Z" fill="#333" /><path data-role="beam" data-measure-id="measure-4" d="M 484.250 528.899 L 551.170 528.899 L 551.170 532.899 L 484.250 532.899 Z" fill="#333" /><path data-role="beam-secondary" data-measure-id="measure-4" d="M 484.250 534.899 L 517.710 534.899 L 517.710 538.899 L 484.250 538.899 Z" fill="#333" /><path data-role="beam-secondary" data-measure-id="measure-4" d="M 517.710 534.899 L 551.170 534.899 L 551.170 538.899 L 517.710 538.899 Z" fill="#333" /><rect data-role="final-barline-thin" data-measure-id="measure-4" x="578.000" y="546.499" width="1.000" height="41.000" fill="#333" /><rect data-role="final-barline-thick" data-measure-id="measure-4" x="579.000" y="546.499" width="3.000" height="41.000" fill="#333" /></g></svg>